<svg fill="none" height="400" viewBox="0 0 400 400" width="400" xmlns="http://www.w3.org/2000/svg"><g stroke="#000" stroke-linecap="round" stroke-linejoin="round" stroke-opacity=".9" stroke-width="16"><path clip-rule="evenodd" d="m174.52 188.088c3.756-5.076 51.486 3.605 96.713-7.497 8.005-1.965-1.077 48.571-4.15 53.769-.752 1.267-78.711-9.525-88.157-10.722-1.116-5.661-6.012-33.38-4.406-35.55z" fill-rule="evenodd"/><path d="m277.455 180.536c10.46-70.889 30.4-13.305 32.929-15.917 9.266-9.571 19.856-21.327 22.754-18.679 12.2 11.143-7.873 88.222-13.778 94.412-1.179 1.235-28.104-43.349-31.445-48.313"/><path d="m268.377 232.412c4.903 13.535 9.032 53.353 9.077 54.588"/><path d="m264.974 240.373c-3.45 13.841-7.202 35.806-9.078 46.627"/><path d="m183.275 240.373c4.525 12.858 8.196 28.714 11.347 42.078"/><path d="m179.872 225.588c-5.41 18.954-8.225 40.102-12.481 59.138"/><path d="m169.293 191.449c-19.328-16.003-37.805-33.535-56.48-50.462-96.0251-87.0404-28.6794 56.118-.367 62.895 22.725 5.441 38.107-8.353 57.214-16.819"/></g></svg>